<svg xmlns="http://www.w3.org/2000/svg" viewBox="0 0 512 512" role="img" aria-label="Loyalty Scan logo">
  <rect width="512" height="512" rx="112" fill="#16814b"/>
  <g fill="none" stroke="#fff" stroke-width="34" stroke-linecap="round" stroke-linejoin="round">
    <path d="M116 214v-72a26 26 0 0 1 26-26h72M298 116h72a26 26 0 0 1 26 26v72M396 298v72a26 26 0 0 1-26 26h-72M214 396h-72a26 26 0 0 1-26-26v-72"/>
    <path d="M174 210h164M174 256h164M174 302h110"/>
  </g>
  <path d="m359 295 14 29 32 5-23 23 5 32-28-15-29 15 6-32-24-23 32-5z" fill="#f8cf55"/>
</svg>
